<?xml version="1.0" encoding="UTF-8"?>
<svg id="Layer_1" data-name="Layer 1" xmlns="http://www.w3.org/2000/svg" viewBox="0 0 24 24">
  <defs>
    <style>
      .cls-1 {
        fill: #fff;
        stroke-width: 0px;
      }
    </style>
  </defs>
  <path class="cls-1" d="M12,2c5.51,0,10,4.49,10,10s-4.49,10-10,10S2,17.51,2,12,6.49,2,12,2ZM12,0C5.37,0,0,5.37,0,12s5.37,12,12,12,12-5.37,12-12S18.63,0,12,0ZM12,3C7.03,3,3,7.03,3,12s4.03,9,9,9,9-4.03,9-9S16.97,3,12,3ZM13,16.95v1.05h-1v-1c-1.03-.02-2.11-.26-3-.73l.45-1.64c.96.37,2.23.77,3.23.54,1.15-.26,1.39-1.44.11-2.01-.93-.43-3.78-.81-3.78-3.24,0-1.36,1.04-2.58,2.98-2.85v-1.07h1v1.02c.73.02,1.53.14,2.44.42l-.36,1.65c-.77-.27-1.62-.52-2.44-.47-1.49.09-1.62,1.38-.58,1.92,1.71.8,3.94,1.4,3.94,3.55,0,1.72-1.34,2.63-3,2.86Z"/>
</svg>